<svg xmlns="http://www.w3.org/2000/svg" viewBox="0 0 192 192" fill="none">
  <defs>
    <linearGradient id="g" x1="0" y1="0" x2="1" y2="1">
      <stop offset="0%" stop-color="#00aeef"/>
      <stop offset="100%" stop-color="#0095cc"/>
    </linearGradient>
  </defs>
  <rect width="192" height="192" rx="40" fill="url(#g)"/>
  <g transform="translate(36,32)" fill="white">
    <rect x="10" y="30" width="100" height="80" rx="10"/>
    <rect x="0" y="50" width="20" height="15" rx="5"/>
    <rect x="100" y="50" width="20" height="15" rx="5"/>
    <rect x="20" y="75" width="12" height="35" rx="5"/>
    <rect x="88" y="75" width="12" height="35" rx="5"/>
    <ellipse cx="40" cy="65" rx="5" ry="6"/>
    <ellipse cx="80" cy="65" rx="5" ry="6"/>
    <ellipse cx="40" cy="65" rx="2" ry="3" fill="#00aeef"/>
    <ellipse cx="80" cy="65" rx="2" ry="3" fill="#00aeef"/>
    <ellipse cx="56" cy="90" rx="6" ry="5" fill="#00aeef"/>
    <ellipse cx="64" cy="90" rx="6" ry="5" fill="#00aeef"/>
    <path d="M35 78 Q60 90 85 78" stroke="white" stroke-width="2.5" fill="none" stroke-linecap="round"/>
    <rect x="50" y="35" width="20" height="2" rx="1" fill="#00aeef"/>
    <rect x="46" y="30" width="28" height="2" rx="1" fill="#00aeef"/>
  </g>
</svg>
